<svg width="40" height="24" viewBox="0 0 40 24" fill="none" xmlns="http://www.w3.org/2000/svg">
<path d="M9.63235 18.9926H11.4847V17.6695C12.3668 17.5107 13.1254 17.1667 13.7605 16.6374C14.3956 16.1082 14.7132 15.3231 14.7132 14.2823C14.7132 13.5413 14.5015 12.8621 14.0781 12.2447C13.6547 11.6272 12.8079 11.0891 11.5377 10.6305C10.4792 10.2776 9.74702 9.9689 9.34126 9.70427C8.9355 9.43965 8.73263 9.07799 8.73263 8.61931C8.73263 8.16062 8.89581 7.79897 9.22218 7.53435C9.54855 7.26972 10.0205 7.13741 10.6379 7.13741C11.2025 7.13741 11.6435 7.27413 11.9611 7.54758C12.2786 7.82102 12.5079 8.16062 12.6491 8.56638L14.3427 7.87836C14.1486 7.2609 13.7914 6.72283 13.2709 6.26415C12.7505 5.80546 12.1728 5.54966 11.5377 5.49673V4.17361H9.68528V5.49673C8.80319 5.69079 8.11517 6.07891 7.6212 6.66108C7.12723 7.24326 6.88025 7.896 6.88025 8.61931C6.88025 9.44847 7.12282 10.1189 7.60797 10.6305C8.09311 11.1421 8.85612 11.5831 9.89698 11.9536C11.0084 12.3593 11.7802 12.721 12.2124 13.0385C12.6447 13.3561 12.8608 13.7707 12.8608 14.2823C12.8608 14.8645 12.6535 15.2923 12.2389 15.5657C11.8243 15.8392 11.326 15.9759 10.7438 15.9759C10.1616 15.9759 9.64558 15.7951 9.19572 15.4334C8.74586 15.0717 8.41508 14.5293 8.20338 13.806L6.45685 14.494C6.70383 15.3408 7.08754 16.0244 7.60797 16.5448C8.1284 17.0653 8.80319 17.4225 9.63235 17.6166V18.9926ZM10.585 22.1681C9.12074 22.1681 7.74469 21.8903 6.45685 21.3345C5.16901 20.7788 4.04876 20.0246 3.09611 19.072C2.14346 18.1193 1.38928 16.9991 0.833569 15.7113C0.277856 14.4234 0 13.0474 0 11.5831C0 10.1188 0.277856 8.7428 0.833569 7.45496C1.38928 6.16712 2.14346 5.04687 3.09611 4.09422C4.04876 3.14157 5.16901 2.38739 6.45685 1.83168C7.74469 1.27596 9.12074 0.998108 10.585 0.998108C12.0493 0.998108 13.4253 1.27596 14.7132 1.83168C16.001 2.38739 17.1212 3.14157 18.0739 4.09422C19.0265 5.04687 19.7807 6.16712 20.3364 7.45496C20.8921 8.7428 21.17 10.1188 21.17 11.5831C21.17 13.0474 20.8921 14.4234 20.3364 15.7113C19.7807 16.9991 19.0265 18.1193 18.0739 19.072C17.1212 20.0246 16.001 20.7788 14.7132 21.3345C13.4253 21.8903 12.0493 22.1681 10.585 22.1681Z" fill="white"/>
<path d="M36.361 4.45265V18.9981H34.1593V6.65436H34.074L30.5939 8.92709V6.82481L34.2232 4.45265H36.361Z" fill="white"/>
</svg>
